# xmcd
#
# Track frame offsets: 
#        150
#        28171
#        45786
#        63533
#        96570
#        115374
#        130351
#        152316
#        179105
#        192423
#        208255
#        234350
#        250373
#        270047
#        298301
#        312877
#
# Disc length: 4430 seconds
#
# Revision: 5
# Processed by: cddbd v1.5.2PL0 Copyright (c) Steve Scherf et al.
# Submitted via: ExactAudioCopy v0.99pb5
#
DISCID=ee114c10
DTITLE=Various Artist - Dorian Gray - History Of Magic 3 - CD2
DYEAR=2002
DGENRE=Techno
TTITLE0=Moskwa TV - Generator 7/8
TTITLE1=Camouflage - The Great Commandment
TTITLE2=Visage - Damned Don't Cry
TTITLE3=Tears For Fears - Shout
TTITLE4=16 Bit - Changing Minds
TTITLE5=Robotiko Rejekto - Rejekto
TTITLE6=Off - Bad News
TTITLE7=3 Phase and Dr. Motte - Klang Der Familie
TTITLE8=Ramirez - La Musica Tremeda
TTITLE9=Emmanuel Top - Acid Phase
TTITLE10=Yakooza - Situation
TTITLE11=Marmion - Schöneberg
TTITLE12=DJ Sakin and Friends - Dragonfly
TTITLE13=O - Das Spiel
TTITLE14=Tom Wilson - Technocat
TTITLE15=Snap - Exterminate
EXTD=The Final Chapter A Tribute To Dorian Gray YEAR: 2002
EXTT0=
EXTT1=
EXTT2=
EXTT3=
EXTT4=
EXTT5=
EXTT6=
EXTT7=
EXTT8=
EXTT9=
EXTT10=
EXTT11=
EXTT12=
EXTT13=
EXTT14=
EXTT15=
PLAYORDER=
